#!OML:ASF F:\VICON\USERDATA\INSTALL\rory3\rory3.ASF
:FULLY-SPECIFIED
:DEGREES
129
root 3.08652 16.4856 4.28783 -79.0884 -49.0946 101.422
lowerback 12.3793 -5.94721 -4.41338
upperback 1.77523 -8.58163 -0.186249
thorax -4.40047 -4.20952 3.58234
lowerneck -2.8228 8.59538 8.66127
upperneck 40.6901 2.347 12.9336
head 14.8727 3.17266 4.07538
rclavicle 8.90555e-014 -9.54166e-015
rhumerus 1.64142 9.36398 10.1956
rradius 44.6955
rwrist -61.8869
rhand 34.3047 -4.74118
rfingers 7.12502
rthumb 57.5299 -20.8771
lclavicle 8.90555e-014 -9.54166e-015
lhumerus -14.4561 -30.0465 23.4893
lradius 17.8663
lwrist -38.2649
lhand 20.766 25.5887
lfingers 7.12502
lthumb 45.248 48.9899
rfemur -88.0469 -52.5818 23.1811
rtibia 58.1354
rfoot -39.5343 -42.395
rtoes 37.7391
lfemur -15.0451 -13.7982 18.6723
ltibia 20.5582
lfoot -56.3247 9.80206
ltoes 53.0611
130
root 3.07295 16.3949 4.26868 -79.2419 -48.409 101.647
lowerback 12.4534 -6.07422 -4.51062
upperback 1.73518 -8.79486 -0.526519
thorax -4.50593 -4.31323 3.32669
lowerneck -2.81982 8.73539 8.83887
upperneck 40.8774 2.39042 13.0505
head 14.9819 3.22967 4.12093
rclavicle 1.17681e-013 -9.54166e-014
rhumerus 2.2652 4.37901 10.6999
rradius 42.4208
rwrist -56.0399
rhand 35.7383 -5.48199
rfingers 7.12502
rthumb 58.7785 -20.4837
lclavicle 1.17681e-013 -9.54166e-014
lhumerus -13.5664 -29.8939 21.269
lradius 17.6688
lwrist -38.6271
lhand 20.3758 26.8892
lfingers 7.12502
lthumb 44.885 50.4339
rfemur -88.9936 -52.7011 22.8332
rtibia 59.2455
rfoot -40.1306 -41.9123
rtoes 37.4544
lfemur -14.3366 -15.1391 19.8661
ltibia 20.0561
lfoot -57.2769 7.32606
ltoes 52.9661
131
root 3.06221 16.2995 4.25506 -79.9503 -46.8258 102.408
lowerback 12.7411 -5.93411 -5.57516
upperback 1.66668 -8.83461 -1.17043
thorax -4.67962 -4.31995 3.28258
lowerneck -2.75056 8.75409 9.07328
upperneck 40.833 2.27575 13.2574
head 14.9708 3.22897 4.15104
rclavicle -3.81667e-014 -3.18055e-015
rhumerus 2.49053 -0.538519 11.2313
rradius 40.6321
rwrist -50.4879
rhand 37.0284 -6.12891
rfingers 7.12502
rthumb 59.8895 -20.0247
lclavicle -3.81667e-014 -3.18055e-015
lhumerus -12.3607 -30.3718 18.9923
lradius 17.7479
lwrist -38.6972
lhand 20.4472 27.8827
lfingers 7.12502
lthumb 44.9515 51.4013
rfemur -89.4895 -52.5753 21.0507
rtibia 60.2652
rfoot -41.038 -41.3075
rtoes 37.5815
lfemur -13.5025 -17.0345 19.8564
ltibia 19.9584
lfoot -58.4916 5.15732
ltoes 53.1514
132
root 3.06996 16.1917 4.24733 -80.4188 -45.3519 102.658
lowerback 13.3454 -5.9335 -7.28337
upperback 1.708 -9.14815 -1.28672
thorax -4.69716 -4.45317 4.18919
lowerneck -2.99143 8.80008 9.22691
upperneck 41.1161 2.519 12.5615
head 15.1715 3.29911 3.89588
rclavicle 2.8625e-014 1.90833e-014
rhumerus 3.62781 -5.14431 12.3138
rradius 39.0448
rwrist -46.5199
rhand 38.1999 -7.27555
rfingers 7.12502
rthumb 60.887 -20.0897
lclavicle 2.8625e-014 1.90833e-014
lhumerus -11.6264 -28.7103 17.3781
lradius 17.6291
lwrist -40.4144
lhand 20.3988 28.7708
lfingers 7.12502
lthumb 44.9064 52.3072
rfemur -90.0302 -52.8246 19.5766
rtibia 61.2834
rfoot -41.9842 -40.6223
rtoes 37.7367
lfemur -12.6585 -18.539 20.0591
ltibia 19.5493
lfoot -59.5305 2.76793
ltoes 53.3105
133
root 3.0572 16.0902 4.24933 -80.0842 -45.9657 102.497
lowerback 12.9724 -6.38343 -7.48683
upperback 1.88679 -9.65563 -0.322645
thorax -4.0374 -4.72917 5.28361
lowerneck -3.69054 9.05976 9.21056
upperneck 41.9821 3.31422 11.0169
head 15.7605 3.51297 3.44809
rclavicle 5.40694e-014 5.725e-014
rhumerus 5.82747 -6.8327 13.7486
rradius 37.7401
rwrist -40.6512
rhand 31.4971 -4.31974
rfingers 7.12502
rthumb 55.0476 -22.4239
lclavicle 5.40694e-014 5.725e-014
lhumerus -11.9552 -25.0719 16.6068
lradius 17.2363
lwrist -43.3454
lhand 20.3577 29.6951
lfingers 7.12502
lthumb 44.8682 53.2464
rfemur -91.0447 -52.7726 20.8074
rtibia 62.1778
rfoot -43.4567 -40.1175
rtoes 37.9196
lfemur -12.2221 -19.655 22.747
ltibia 19.0994
lfoot -60.2076 -0.0359759
ltoes 53.3624
134
root 3.04734 16.0077 4.21687 -80.2667 -46.6549 102.246
lowerback 13.47 -6.01523 -4.4591
upperback 1.82429 -8.86212 -1.60888
thorax -5.14962 -4.34418 2.32212
lowerneck -3.28695 8.48973 10.1852
upperneck 41.4543 1.72637 12.4383
head 15.5405 3.09361 3.63674
rclavicle -1.01778e-013 -2.54444e-014
rhumerus 3.80896 -10.8458 13.9397
rradius 35.8266
rwrist -36.0302
rhand 34.3222 -6.68274
rfingers 7.12502
rthumb 57.5452 -22.8054
lclavicle -1.01778e-013 -2.54444e-014
lhumerus -7.6509 -29.7987 12.734
lradius 17.7559
lwrist -40.2341
lhand 20.4776 31.328
lfingers 7.12502
lthumb 44.9798 54.8356
rfemur -90.6955 -52.6523 21.1073
rtibia 63.076
rfoot -44.9021 -39.7715
rtoes 38.4888
lfemur -11.3788 -20.6892 25.176
ltibia 18.6974
lfoot -60.7519 -2.27337
ltoes 53.5274
135
root 3.04775 15.9498 4.2008 -79.5191 -47.2976 101.52
lowerback 13.5408 -6.52592 -3.97196
upperback 1.60443 -9.40489 -0.868776
thorax -5.33598 -4.59252 2.93243
lowerneck -2.90366 8.61782 9.75254
upperneck 41.3636 2.26408 12.0278
head 15.3375 3.20482 3.56635
rclavicle -1.74931e-013 -9.85972e-014
rhumerus 6.10129 -14.4614 14.4732
rradius 33.8945
rwrist -30.9214
rhand 31.4 -6.31184
rfingers 7.12502
rthumb 54.961 -24.4787
lclavicle -1.74931e-013 -9.85972e-014
lhumerus -7.48964 -24.2792 12.1131
lradius 17.0581
lwrist -45.1967
lhand 20.2992 30.1232
lfingers 7.12502
lthumb 44.8137 53.6958
rfemur -91.98 -53.1028 22.774
rtibia 63.9497
rfoot -45.0965 -39.7171
rtoes 38.4566
lfemur -11.3864 -21.5178 27.7594
ltibia 18.202
lfoot -61.6925 -2.96657
ltoes 53.522
